<?xml version="1.0" standalone="no"?>
<!DOCTYPE svg PUBLIC "-//W3C//DTD SVG 20010904//EN"
 "http://www.w3.org/TR/2001/REC-SVG-20010904/DTD/svg10.dtd">
<svg version="1.0" xmlns="http://www.w3.org/2000/svg"
 width="200.000000pt" height="200.000000pt" viewBox="0 0 200.000000 200.000000"
 preserveAspectRatio="xMidYMid meet">
<metadata>
Created by potrace 1.14, written by Peter Selinger 2001-2017
</metadata>
<g transform="translate(0.000000,200.000000) scale(0.100000,-0.100000)"
fill="#000000" stroke="none">
<path d="M977 1494 c-4 -4 -7 -17 -7 -29 0 -36 -47 -133 -68 -139 -10 -3 -40
5 -68 18 -27 13 -59 26 -71 30 -12 4 -28 19 -35 34 -15 30 -42 40 -63 22 -37
-31 1 -93 43 -71 13 7 36 1 88 -23 83 -39 90 -60 35 -119 -29 -32 -39 -37 -63
-31 -19 4 -37 0 -53 -10 -31 -20 -37 -20 -95 5 -28 12 -50 29 -53 40 -7 27
-53 26 -62 -1 -9 -28 13 -53 41 -46 12 3 44 -4 74 -17 43 -19 55 -30 65 -58
10 -29 8 -38 -8 -64 -11 -16 -31 -40 -45 -52 -28 -24 -24 -53 8 -53 13 0 20 7
20 19 0 11 12 38 27 60 22 34 32 41 58 41 17 0 36 5 41 10 11 11 81 -35 76
-51 -1 -5 2 -19 8 -29 13 -24 65 -27 78 -5 4 9 41 27 82 41 68 23 75 23 98 8
13 -9 35 -14 49 -11 29 5 79 -33 94 -71 13 -33 54 -27 54 8 0 19 -6 26 -25 28
-39 6 -80 50 -80 88 0 22 -8 39 -22 51 -21 16 -23 27 -22 96 0 43 5 82 10 87
5 5 37 -8 76 -31 55 -32 77 -53 120 -116 29 -42 53 -81 53 -87 0 -6 7 -12 16
-14 21 -4 34 27 15 34 -8 3 -38 39 -66 80 l-51 74 32 28 c56 47 63 51 86 52
29 0 41 37 19 58 -19 19 -49 7 -54 -23 -4 -18 -53 -67 -88 -85 -17 -9 -30 -6
-76 22 -30 18 -63 45 -72 61 -11 19 -22 27 -37 25 -24 -3 -122 66 -135 97 -9
21 -35 31 -47 19z m97 -100 c31 -25 56 -52 56 -60 0 -9 6 -22 14 -29 14 -14
17 -167 4 -180 -8 -8 -180 141 -195 170 -11 19 -8 32 15 84 15 33 32 61 38 61
7 0 37 -20 68 -46z m-80 -178 c106 -88 125 -110 116 -133 -6 -15 -29 -27 -79
-44 -68 -21 -72 -21 -91 -4 -12 11 -28 15 -42 12 -37 -9 -80 32 -83 81 -3 35
2 44 35 77 21 21 43 34 49 31 6 -4 19 -2 28 3 24 14 21 15 67 -23z"/>
<path d="M1361 881 c-21 -14 -5 -43 21 -39 15 2 23 10 23 23 0 22 -22 30 -44
16z"/>
<path d="M1635 871 c-3 -2 -5 -53 -5 -113 0 -108 0 -109 23 -106 21 3 22 7 25
115 3 108 2 112 -18 110 -12 -1 -23 -3 -25 -6z"/>
<path d="M824 856 c-63 -28 -47 -96 28 -117 56 -15 61 -18 47 -35 -14 -17 -52
-18 -81 -3 -16 9 -23 8 -29 -2 -13 -21 -11 -25 16 -37 68 -31 148 -2 148 53 0
33 -22 52 -69 61 -46 8 -62 29 -34 44 15 8 30 8 51 1 24 -8 31 -7 36 5 3 8 2
19 -3 24 -17 17 -79 20 -110 6z"/>
<path d="M307 805 c-2 -5 -4 -41 -3 -80 1 -64 3 -70 24 -73 20 -3 22 1 22 47
0 52 19 85 45 75 18 -7 22 -21 21 -72 -1 -33 3 -43 18 -48 24 -8 34 8 31 54
-3 47 19 76 46 61 15 -8 19 -21 19 -64 0 -53 1 -55 26 -53 24 2 25 5 23 58 -3
90 -32 121 -93 100 -25 -8 -40 -8 -60 1 -20 9 -32 9 -51 1 -14 -6 -25 -7 -25
-2 0 12 -39 8 -43 -5z"/>
<path d="M597 813 c-3 -2 11 -40 30 -84 36 -84 35 -104 -2 -95 -15 4 -25 1
-28 -8 -7 -17 11 -33 33 -31 8 1 23 3 33 3 13 2 31 29 57 86 22 47 42 97 46
112 6 23 4 26 -10 21 -10 -4 -21 -7 -25 -7 -4 0 -15 -23 -26 -51 l-18 -52 -26
54 c-23 47 -48 68 -64 52z"/>
<path d="M1034 813 c-30 -6 -52 -33 -60 -71 -5 -26 -1 -36 24 -62 32 -32 64
-38 105 -19 25 11 47 47 47 74 0 27 -22 63 -47 74 -24 11 -31 12 -69 4z m56
-47 c16 -20 9 -56 -12 -70 -40 -24 -80 44 -42 71 23 17 39 16 54 -1z"/>
<path d="M1221 809 c-83 -33 -57 -159 33 -159 31 0 76 23 76 39 0 14 -33 22
-44 11 -15 -15 -53 -12 -60 6 -19 49 8 84 51 65 21 -10 29 -9 40 2 11 11 12
16 1 24 -20 17 -71 23 -97 12z"/>
<path d="M1359 796 c-1 -23 -1 -126 0 -138 1 -5 9 -8 20 -8 23 0 28 18 27 100
-1 60 -3 65 -24 66 -16 1 -22 -5 -23 -20z"/>
<path d="M1462 809 c-37 -14 -16 -38 30 -36 25 1 43 -3 45 -10 3 -9 -7 -13
-30 -13 -41 0 -67 -21 -67 -55 0 -32 25 -44 90 -42 l55 2 3 61 c2 50 0 63 -18
79 -22 20 -73 27 -108 14z m78 -104 c0 -8 -4 -16 -10 -16 -5 -1 -16 -2 -22 -3
-15 -2 -29 15 -22 26 9 15 54 9 54 -7z"/>
</g>
</svg>
